<?xml version="1.0" encoding="UTF-8"?>
<svg version="1.1" xmlns="http://www.w3.org/2000/svg" width="1024" height="1024">
<circle r="512" cx="512" cy="512" fill="#FEF5DE" />
<path d="M0,0 L10,0 L17,4 L22,10 L29,24 L36,24 L45,27 L53,34 L64,60 L80,100 L87,117 L88,118 L95,110 L108,97 L122,86 L137,76 L155,66 L174,58 L192,52 L217,46 L238,43 L285,43 L318,47 L335,51 L365,61 L386,71 L404,82 L418,93 L430,104 L446,120 L456,133 L466,148 L474,164 L478,172 L488,165 L501,160 L508,160 L508,153 L512,138 L520,120 L530,104 L540,91 L550,80 L557,72 L569,60 L577,53 L590,42 L607,29 L625,18 L633,15 L643,15 L651,19 L656,25 L659,32 L659,46 L654,62 L644,86 L636,102 L624,125 L613,142 L604,154 L593,167 L576,184 L561,195 L554,199 L552,220 L547,233 L540,245 L528,258 L518,265 L504,272 L490,276 L483,276 L481,287 L475,304 L467,320 L459,333 L448,347 L429,366 L414,377 L401,385 L379,397 L358,407 L356,410 L362,412 L376,419 L388,427 L402,438 L416,452 L429,469 L438,484 L448,505 L454,523 L458,545 L459,552 L459,570 L473,564 L482,557 L488,549 L491,541 L491,527 L488,517 L488,503 L493,494 L501,487 L508,484 L522,484 L532,489 L541,498 L549,513 L552,526 L552,547 L548,563 L541,579 L533,591 L524,601 L517,608 L507,615 L490,624 L470,630 L458,632 L447,632 L446,637 L438,654 L428,670 L418,683 L409,693 L398,704 L381,717 L362,728 L343,737 L332,741 L329,741 L335,751 L339,763 L339,778 L335,791 L329,801 L320,811 L307,819 L294,824 L278,827 L257,827 L244,825 L230,820 L218,813 L208,803 L202,793 L199,786 L198,781 L198,761 L203,748 L207,741 L202,740 L181,731 L164,722 L149,712 L138,703 L126,692 L115,679 L105,664 L93,641 L91,638 L85,643 L83,647 L83,654 L87,660 L93,668 L96,676 L96,688 L93,696 L87,703 L79,707 L75,708 L59,708 L48,704 L37,695 L28,683 L23,671 L21,662 L21,642 L24,630 L32,614 L40,603 L50,593 L64,583 L79,575 L81,545 L85,525 L92,504 L100,487 L112,469 L121,458 L134,444 L145,435 L148,432 L149,413 L153,395 L158,380 L166,364 L174,352 L182,342 L194,330 L209,319 L225,310 L250,300 L286,288 L303,279 L313,271 L321,262 L327,250 L330,240 L330,226 L328,216 L320,200 L309,189 L293,181 L278,177 L271,176 L250,176 L236,179 L223,184 L212,191 L202,200 L193,213 L186,228 L181,242 L172,256 L160,268 L143,277 L127,281 L109,281 L93,277 L78,269 L66,258 L57,246 L52,236 L52,232 L23,247 L1,258 L-18,268 L-29,273 L-33,274 L-48,274 L-60,268 L-66,263 L-72,254 L-91,208 L-106,171 L-122,132 L-134,103 L-136,96 L-136,86 L-133,77 L-127,69 L-119,62 L-85,44 L-56,29 L-37,19 L-12,6 Z " fill="#34C3B2" transform="translate(252,108)"/>
<path d="M0,0 L10,0 L17,4 L22,10 L29,24 L36,24 L45,27 L53,34 L64,60 L80,100 L87,117 L88,118 L95,110 L108,97 L122,86 L137,76 L155,66 L174,58 L192,52 L217,46 L238,43 L285,43 L318,47 L335,51 L365,61 L386,71 L404,82 L418,93 L430,104 L446,120 L456,133 L466,148 L474,164 L478,172 L488,165 L501,160 L508,160 L508,153 L512,138 L520,120 L530,104 L540,91 L550,80 L557,72 L569,60 L577,53 L590,42 L607,29 L625,18 L633,15 L643,15 L651,19 L656,25 L659,32 L659,46 L654,62 L644,86 L636,102 L624,125 L613,142 L604,154 L593,167 L576,184 L561,195 L554,199 L552,220 L547,233 L540,245 L528,258 L518,265 L504,272 L490,276 L483,276 L481,287 L475,304 L467,320 L459,333 L448,347 L429,366 L414,377 L401,385 L379,397 L358,407 L356,410 L362,412 L376,419 L388,427 L402,438 L416,452 L429,469 L438,484 L448,505 L454,523 L458,545 L459,552 L459,570 L473,564 L482,557 L488,549 L491,541 L491,527 L488,517 L488,503 L493,494 L501,487 L508,484 L522,484 L532,489 L541,498 L549,513 L552,526 L552,547 L548,563 L541,579 L533,591 L524,601 L517,608 L507,615 L490,624 L470,630 L458,632 L447,632 L446,637 L438,654 L428,670 L418,683 L409,693 L398,704 L381,717 L362,728 L343,737 L332,741 L329,741 L335,751 L339,763 L339,778 L335,791 L329,801 L320,811 L307,819 L294,824 L278,827 L257,827 L244,825 L230,820 L218,813 L208,803 L202,793 L199,786 L198,781 L198,761 L203,748 L207,741 L202,740 L181,731 L164,722 L149,712 L138,703 L126,692 L115,679 L105,664 L93,641 L91,638 L85,643 L83,647 L83,654 L87,660 L93,668 L96,676 L96,688 L93,696 L87,703 L79,707 L75,708 L59,708 L48,704 L37,695 L28,683 L23,671 L21,662 L21,642 L24,630 L32,614 L40,603 L50,593 L64,583 L79,575 L81,545 L85,525 L92,504 L100,487 L112,469 L121,458 L134,444 L145,435 L148,432 L149,413 L153,395 L158,380 L166,364 L174,352 L182,342 L194,330 L209,319 L225,310 L250,300 L286,288 L303,279 L313,271 L321,262 L327,250 L330,240 L330,226 L328,216 L320,200 L309,189 L293,181 L278,177 L271,176 L250,176 L236,179 L223,184 L212,191 L202,200 L193,213 L186,228 L181,242 L172,256 L160,268 L143,277 L127,281 L109,281 L93,277 L78,269 L66,258 L57,246 L52,236 L52,232 L23,247 L1,258 L-18,268 L-29,273 L-33,274 L-48,274 L-60,268 L-66,263 L-72,254 L-91,208 L-106,171 L-122,132 L-134,103 L-136,96 L-136,86 L-133,77 L-127,69 L-119,62 L-85,44 L-56,29 L-37,19 L-12,6 Z M244,65 L226,67 L198,73 L175,81 L159,89 L145,97 L128,109 L116,120 L111,125 L102,134 L93,146 L84,161 L80,169 L75,182 L71,200 L71,220 L76,235 L81,244 L83,244 L85,248 L96,255 L106,259 L110,260 L125,260 L136,257 L148,251 L157,242 L164,228 L171,208 L178,195 L186,184 L190,179 L201,170 L212,163 L226,157 L243,153 L276,153 L297,158 L314,166 L327,176 L334,183 L343,197 L347,205 L351,219 L351,242 L348,254 L343,266 L335,278 L326,288 L313,298 L297,306 L281,312 L246,324 L230,331 L214,341 L203,350 L195,358 L185,373 L177,389 L172,404 L169,420 L168,440 L165,446 L151,457 L137,471 L124,488 L114,506 L107,523 L102,544 L101,554 L101,586 L104,607 L109,624 L117,643 L126,658 L136,671 L149,685 L163,696 L177,705 L192,713 L206,719 L229,727 L234,731 L234,739 L231,744 L223,753 L219,763 L218,768 L218,775 L221,785 L227,793 L234,799 L246,804 L254,806 L277,806 L289,804 L301,799 L309,793 L315,785 L318,775 L318,764 L312,752 L303,742 L302,740 L302,731 L306,727 L333,718 L351,710 L367,701 L379,692 L392,681 L404,668 L416,651 L424,636 L431,617 L435,604 L438,585 L438,553 L435,534 L428,511 L420,494 L411,480 L401,467 L386,452 L373,442 L358,433 L344,427 L336,423 L333,422 L331,417 L330,415 L330,405 L335,397 L343,390 L362,380 L376,374 L395,364 L412,352 L425,340 L430,336 L439,325 L446,315 L455,298 L462,279 L462,276 L446,275 L438,270 L436,265 L436,259 L440,253 L449,246 L454,238 L457,226 L461,203 L462,201 L462,192 L455,173 L445,154 L435,140 L426,130 L419,122 L407,111 L398,104 L381,93 L365,85 L346,77 L327,71 L304,67 L288,65 Z " fill="#4D292C" transform="translate(252,108)"/>
<path d="M0,0 L1,2 L3,3 L2,6 L8,5 L7,11 L4,11 L2,11 L2,13 L7,13 L9,2 L14,2 L11,3 L9,14 L3,31 L-5,47 L-13,60 L-24,74 L-43,93 L-58,104 L-71,112 L-93,124 L-114,134 L-116,137 L-110,139 L-96,146 L-84,154 L-70,165 L-56,179 L-43,196 L-34,211 L-24,232 L-18,250 L-14,272 L-13,279 L-13,297 L1,291 L10,284 L16,276 L19,268 L19,254 L16,244 L16,230 L21,221 L29,214 L36,211 L50,211 L60,216 L69,225 L77,240 L80,253 L80,274 L76,290 L69,306 L61,318 L52,328 L45,335 L35,342 L18,351 L-2,357 L-14,359 L-25,359 L-26,364 L-34,381 L-44,397 L-54,410 L-63,420 L-74,431 L-91,444 L-110,455 L-129,464 L-140,468 L-143,468 L-137,478 L-133,490 L-133,505 L-137,518 L-143,528 L-152,538 L-165,546 L-178,551 L-194,554 L-215,554 L-228,552 L-242,547 L-254,540 L-264,530 L-270,520 L-273,513 L-274,508 L-274,488 L-269,475 L-265,468 L-270,467 L-291,458 L-308,449 L-323,439 L-334,430 L-346,419 L-357,406 L-367,391 L-379,368 L-381,365 L-387,370 L-389,374 L-389,381 L-385,387 L-379,395 L-376,403 L-376,415 L-379,423 L-385,430 L-393,434 L-397,435 L-413,435 L-424,431 L-435,422 L-444,410 L-449,398 L-451,389 L-451,369 L-448,357 L-440,341 L-432,330 L-422,320 L-408,310 L-393,302 L-391,272 L-389,276 L-387,277 L-380,278 L-380,281 L-378,281 L-378,275 L-374,279 L-373,313 L-372,276 L-371,271 L-370,271 L-370,313 L-367,334 L-362,351 L-354,370 L-345,385 L-335,398 L-323,411 L-309,422 L-295,431 L-280,439 L-266,445 L-243,453 L-237,458 L-237,466 L-240,471 L-248,480 L-252,490 L-253,495 L-253,502 L-250,512 L-244,520 L-236,526 L-226,530 L-218,532 L-195,532 L-183,530 L-171,525 L-163,519 L-157,510 L-155,502 L-155,491 L-161,479 L-170,469 L-171,467 L-171,458 L-166,453 L-139,444 L-121,436 L-105,427 L-93,418 L-80,407 L-69,395 L-57,378 L-49,363 L-42,344 L-38,331 L-35,312 L-35,280 L-38,261 L-45,238 L-53,221 L-62,207 L-72,194 L-86,180 L-99,170 L-114,161 L-128,155 L-136,151 L-141,146 L-143,142 L-143,132 L-138,124 L-129,116 L-110,106 L-96,100 L-77,90 L-60,78 L-47,66 L-42,61 L-33,51 L-23,35 L-16,20 L-10,2 L-24,2 L-24,1 L-8,1 L-10,11 L-8,11 L-7,7 L-4,5 L-3,5 L-1,5 Z " fill="#4D292C" transform="translate(724,381)"/>
<path d="M0,0 L4,0 L5,3 L7,5 L10,4 L10,6 L12,6 L11,10 L8,10 L9,12 L9,15 L9,19 L11,19 L12,25 L11,27 L13,27 L12,29 L11,32 L9,36 L7,36 L7,33 L5,33 L4,29 L8,31 L9,25 L7,24 L6,19 L4,19 L6,20 L6,22 L1,26 L0,23 L-3,28 L-4,31 L-6,32 L-6,34 L-3,33 L-5,37 L-2,37 L2,33 L4,33 L5,37 L3,37 L3,42 L5,42 L5,39 L7,39 L6,52 L5,54 L3,54 L3,56 L6,56 L6,54 L14,56 L24,57 L24,59 L28,60 L27,63 L29,64 L28,66 L26,66 L25,70 L27,71 L27,75 L30,75 L28,81 L30,84 L32,82 L35,82 L37,86 L39,87 L38,92 L40,92 L41,95 L44,91 L47,91 L48,85 L51,84 L54,86 L53,91 L51,92 L58,93 L59,90 L59,95 L56,96 L54,94 L49,94 L49,90 L48,95 L46,94 L45,96 L47,97 L44,99 L44,103 L42,104 L41,107 L38,107 L37,103 L38,100 L37,95 L34,99 L36,105 L32,105 L32,107 L34,108 L37,112 L36,117 L31,118 L34,125 L34,130 L30,132 L29,134 L25,136 L23,140 L21,139 L20,143 L18,145 L14,139 L12,138 L13,145 L15,145 L15,149 L16,154 L18,154 L19,159 L17,163 L15,163 L15,168 L14,166 L12,169 L11,166 L8,167 L9,172 L16,172 L20,168 L18,167 L20,163 L25,168 L26,173 L23,174 L22,178 L25,180 L25,177 L31,176 L31,174 L33,174 L33,172 L36,171 L39,173 L39,174 L43,169 L45,167 L48,173 L49,175 L47,175 L47,177 L45,177 L45,174 L42,174 L43,179 L46,181 L42,181 L45,185 L42,186 L45,187 L45,189 L38,189 L37,187 L37,192 L43,191 L48,190 L48,196 L45,201 L40,203 L38,202 L38,197 L33,198 L34,202 L34,200 L37,201 L34,204 L29,203 L30,199 L24,201 L23,197 L23,195 L20,193 L21,191 L19,190 L22,187 L17,187 L17,182 L9,180 L5,183 L4,180 L0,180 L-1,169 L-1,147 L-5,137 L-11,129 L-18,126 L-27,125 L-27,123 L-18,123 L-18,121 L-31,121 L-33,116 L-38,116 L-41,120 L-42,118 L-41,115 L-40,114 L-41,111 L-40,105 L-37,106 L-39,102 L-40,100 L-42,102 L-44,98 L-48,102 L-50,106 L-53,106 L-53,108 L-49,108 L-51,115 L-57,112 L-57,120 L-58,121 L-53,121 L-53,118 L-49,117 L-48,119 L-50,120 L-42,124 L-41,133 L-45,134 L-45,140 L-43,140 L-44,146 L-44,166 L-43,172 L-45,171 L-46,168 L-47,175 L-48,173 L-50,173 L-47,177 L-48,180 L-48,178 L-50,178 L-51,181 L-52,179 L-56,180 L-56,184 L-59,184 L-60,186 L-65,184 L-70,185 L-68,186 L-68,194 L-73,195 L-70,198 L-71,202 L-68,203 L-69,207 L-66,207 L-65,203 L-63,202 L-63,199 L-61,201 L-61,204 L-59,203 L-57,198 L-53,198 L-53,196 L-51,196 L-51,198 L-49,198 L-48,191 L-43,190 L-43,194 L-40,192 L-37,191 L-33,194 L-23,195 L-21,199 L-19,201 L-25,202 L-22,204 L-22,206 L-28,210 L-29,220 L-27,220 L-26,224 L-25,215 L-23,215 L-23,225 L-21,229 L-25,228 L-24,231 L-26,236 L-22,237 L-22,240 L-20,240 L-20,238 L-16,236 L-15,239 L-11,240 L0,250 L15,259 L14,262 L11,263 L10,261 L1,260 L-1,260 L-1,264 L-4,265 L-4,267 L-10,267 L-12,263 L-13,260 L-17,259 L-15,262 L-13,261 L-14,269 L-9,268 L-11,273 L-8,274 L-10,275 L-10,278 L-6,275 L-1,276 L1,277 L1,279 L-2,279 L0,285 L1,293 L0,297 L3,298 L3,301 L6,301 L5,305 L7,307 L7,311 L1,314 L0,317 L1,319 L3,318 L3,321 L6,321 L6,323 L2,323 L9,325 L11,324 L11,330 L8,332 L14,332 L14,336 L12,336 L13,340 L9,338 L9,341 L7,341 L7,339 L3,343 L5,344 L2,345 L2,347 L-2,346 L-1,343 L-7,343 L-7,341 L-5,341 L-7,339 L-11,340 L-13,338 L-13,342 L-15,343 L-17,346 L-21,344 L-20,337 L-22,336 L-20,336 L-21,327 L-27,329 L-29,326 L-30,319 L-32,318 L-33,322 L-31,322 L-31,326 L-32,329 L-38,329 L-35,332 L-35,334 L-41,335 L-43,337 L-43,335 L-46,335 L-47,333 L-52,333 L-53,329 L-49,328 L-44,329 L-45,328 L-45,322 L-47,322 L-48,324 L-47,317 L-47,313 L-47,311 L-49,312 L-48,317 L-51,316 L-52,310 L-49,310 L-54,307 L-57,307 L-56,306 L-56,300 L-58,304 L-60,304 L-59,297 L-61,296 L-59,291 L-61,292 L-65,295 L-69,296 L-70,298 L-65,299 L-66,301 L-66,304 L-65,307 L-68,307 L-69,310 L-71,310 L-72,312 L-74,311 L-74,309 L-80,308 L-80,311 L-78,311 L-75,315 L-76,317 L-83,310 L-90,302 L-101,287 L-110,271 L-118,250 L-122,234 L-124,218 L-124,186 L-122,172 L-118,155 L-111,138 L-101,120 L-91,107 L-80,95 L-74,91 L-69,92 L-69,95 L-67,95 L-65,93 L-64,86 L-64,85 L-63,83 L-60,83 L-56,83 L-55,78 L-54,77 L-56,76 L-55,54 L-53,53 L-52,69 L-50,67 L-49,55 L-48,55 L-47,62 L-44,60 L-46,60 L-47,58 L-47,50 L-44,43 L-40,41 L-34,41 L-31,44 L-36,45 L-35,50 L-33,51 L-34,56 L-32,56 L-32,54 L-30,54 L-29,52 L-29,49 L-28,47 L-26,49 L-25,45 L-22,45 L-22,43 L-30,45 L-27,42 L-28,38 L-28,36 L-26,34 L-25,30 L-25,32 L-23,32 L-23,29 L-20,29 L-20,24 L-18,28 L-20,35 L-21,37 L-20,37 L-18,35 L-18,37 L-14,36 L-19,33 L-16,29 L-16,26 L-13,27 L-15,22 L-13,22 L-14,19 L-18,16 L-15,16 L-15,11 L-8,10 L-7,7 L-1,5 Z M24,71 Z M23,72 Z M35,176 Z M1,325 Z M33,105 Z M36,105 Z " fill="#34C3B2" transform="translate(477,476)"/>
<path d="M0,0 L10,0 L18,4 L23,10 L26,17 L26,31 L21,47 L11,71 L3,87 L-9,110 L-20,127 L-29,139 L-40,152 L-57,169 L-72,180 L-79,184 L-81,205 L-86,218 L-93,230 L-105,243 L-115,250 L-129,257 L-143,261 L-152,260 L-152,267 L-154,273 L-157,273 L-157,271 L-159,271 L-159,269 L-157,269 L-156,267 L-155,268 L-153,263 L-159,264 L-160,260 L-161,259 L-164,267 L-166,264 L-169,269 L-171,269 L-170,260 L-171,261 L-187,261 L-195,256 L-198,250 L-198,244 L-194,238 L-184,230 L-179,220 L-176,203 L-173,188 L-172,186 L-172,177 L-179,158 L-187,142 L-187,140 L-191,133 L-189,133 L-191,126 L-192,122 L-191,120 L-188,120 L-189,118 L-193,119 L-196,116 L-193,112 L-190,114 L-193,111 L-196,112 L-197,118 L-195,118 L-196,122 L-199,118 L-203,117 L-203,114 L-207,112 L-208,104 L-213,106 L-217,102 L-214,102 L-213,102 L-211,99 L-208,98 L-206,96 L-199,98 L-198,101 L-194,100 L-186,109 L-187,113 L-185,113 L-185,115 L-185,116 L-182,114 L-178,119 L-173,124 L-165,137 L-157,153 L-155,157 L-145,150 L-132,145 L-125,145 L-125,138 L-121,123 L-113,105 L-103,89 L-93,76 L-83,65 L-76,57 L-64,45 L-56,38 L-43,27 L-26,14 L-8,3 Z " fill="#4D292C" transform="translate(885,123)"/>
<path d="M0,0 L2,1 L6,12 L6,14 L-16,25 L-38,37 L-48,42 L-46,43 L-46,45 L-43,45 L-43,40 L-37,39 L-34,39 L-35,37 L-30,38 L-30,41 L-27,40 L-25,41 L-24,39 L-19,40 L-20,45 L-17,46 L-18,49 L-26,51 L-26,53 L-10,45 L16,32 L31,24 L33,24 L46,56 L57,84 L69,114 L69,119 L62,131 L55,147 L49,166 L46,182 L45,189 L13,205 L-6,215 L-24,224 L-27,224 L-45,178 L-56,151 L-68,121 L-82,86 L-82,83 L-79,81 L-84,82 L-86,79 L-79,95 L-79,97 L-81,97 L-82,101 L-85,101 L-85,106 L-88,106 L-89,110 L-87,110 L-87,115 L-89,114 L-91,109 L-91,105 L-89,105 L-91,98 L-93,98 L-92,103 L-95,99 L-96,95 L-97,91 L-97,89 L-98,91 L-100,92 L-98,92 L-84,127 L-68,166 L-56,197 L-44,226 L-43,231 L-49,231 L-55,226 L-64,205 L-81,163 L-84,154 L-86,154 L-93,137 L-98,125 L-98,123 L-101,122 L-101,117 L-105,121 L-107,121 L-107,124 L-110,123 L-112,115 L-109,115 L-109,113 L-103,112 L-108,100 L-109,104 L-107,104 L-108,110 L-110,110 L-110,108 L-113,109 L-114,105 L-117,106 L-117,104 L-121,105 L-123,101 L-122,98 L-120,98 L-119,96 L-118,97 L-117,95 L-120,94 L-119,85 L-115,83 L-115,81 L-117,80 L-116,73 L-106,74 L-104,72 L-106,73 L-113,73 L-117,70 L-117,64 L-112,59 L-86,45 L-61,32 L-42,22 L-13,7 Z " fill="#F96F47" transform="translate(255,130)"/>
<path d="M0,0 L33,0 L51,4 L67,10 L81,18 L91,26 L99,33 L110,47 L118,61 L124,75 L127,86 L129,100 L129,124 L125,143 L119,158 L111,173 L102,184 L89,197 L75,207 L56,217 L39,222 L32,223 L-1,223 L-8,221 L-8,220 L2,218 L2,220 L5,221 L28,221 L32,220 L27,218 L27,217 L35,217 L34,213 L33,210 L35,210 L35,206 L31,204 L33,202 L33,204 L41,202 L41,205 L44,200 L50,198 L51,195 L63,189 L71,183 L71,149 L58,141 L47,135 L42,136 L23,145 L18,148 L18,176 L33,188 L44,196 L49,197 L45,199 L43,199 L38,194 L33,194 L34,191 L32,190 L32,192 L26,195 L26,192 L24,192 L23,191 L21,197 L21,200 L19,200 L19,203 L17,204 L-3,203 L-6,201 L18,202 L18,200 L13,198 L6,192 L9,190 L7,189 L11,187 L8,187 L6,181 L5,178 L3,177 L4,170 L4,151 L5,146 L7,146 L7,148 L11,149 L13,155 L11,161 L8,161 L10,162 L10,167 L10,170 L10,172 L14,171 L14,146 L16,146 L16,139 L14,138 L19,138 L18,143 L20,142 L20,140 L26,141 L34,137 L30,136 L27,133 L24,131 L28,131 L27,129 L21,129 L20,127 L14,130 L12,129 L30,119 L36,117 L35,82 L23,73 L26,70 L24,69 L24,65 L24,63 L30,60 L26,59 L24,52 L21,49 L26,51 L45,64 L48,65 L71,55 L73,54 L72,38 L56,29 L43,24 L31,22 L14,21 L15,25 L15,37 L14,40 L13,45 L9,46 L8,43 L5,44 L6,38 L3,35 L3,30 L1,32 L1,44 L5,46 L4,48 L7,47 L6,50 L3,49 L3,46 L-1,45 L-4,30 L-4,23 L-17,27 L-33,35 L-43,43 L-48,47 L-47,50 L-30,61 L-25,59 L-21,58 L-24,61 L-23,66 L-24,71 L-22,71 L-21,67 L-17,68 L-17,73 L-26,73 L-26,76 L-29,76 L-29,78 L-26,79 L-28,83 L-30,83 L-32,85 L-33,82 L-34,87 L-35,90 L-37,88 L-37,96 L-31,96 L-31,93 L-27,93 L-27,97 L-25,98 L-26,95 L-25,90 L-24,87 L-21,86 L-20,113 L-15,115 L-7,122 L-2,126 L-5,126 L-6,129 L-6,124 L-8,124 L-9,126 L-13,126 L-14,130 L-19,127 L-19,123 L-22,123 L-20,124 L-21,128 L-25,127 L-26,129 L-31,126 L-32,128 L-37,127 L-37,123 L-40,123 L-39,118 L-42,116 L-40,114 L-39,78 L-44,76 L-58,66 L-61,65 L-63,70 L-69,82 L-73,99 L-73,123 L-70,128 L-64,132 L-60,133 L-60,138 L-64,139 L-64,141 L-62,141 L-62,143 L-64,143 L-64,147 L-58,146 L-60,149 L-58,149 L-57,151 L-56,153 L-58,159 L-56,160 L-56,164 L-57,165 L-56,168 L-58,170 L-54,171 L-55,174 L-64,174 L-62,178 L-64,181 L-66,180 L-66,185 L-57,194 L-51,198 L-52,194 L-50,195 L-50,197 L-48,196 L-50,192 L-50,187 L-48,187 L-48,189 L-43,190 L-42,187 L-40,191 L-43,192 L-40,195 L-38,200 L-38,203 L-35,203 L-35,205 L-41,204 L-37,208 L-32,212 L-36,211 L-46,205 L-60,194 L-68,186 L-77,174 L-85,160 L-91,144 L-94,130 L-95,121 L-95,100 L-92,84 L-87,69 L-79,53 L-67,37 L-53,23 L-43,16 L-28,8 L-10,2 Z M24,57 L26,61 L23,60 Z " fill="#4C292B" transform="translate(211,423)"/>
<path d="M0,0 L17,0 L29,2 L44,8 L58,16 L59,17 L60,33 L46,40 L34,45 L30,43 L15,33 L11,31 L12,35 L12,38 L16,39 L15,41 L10,42 L10,44 L12,45 L12,47 L14,49 L10,52 L21,60 L22,61 L22,96 L-1,108 L7,105 L7,108 L13,107 L15,108 L13,111 L16,114 L22,115 L18,118 L12,121 L8,120 L6,119 L7,122 L3,122 L3,119 L2,118 L2,125 L1,126 L1,155 L0,155 L0,150 L-4,151 L-6,147 L-5,142 L-7,138 L-4,139 L-2,134 L-4,128 L-7,127 L-7,125 L-9,125 L-9,153 L-11,156 L-8,157 L-6,166 L-3,166 L-4,168 L-5,169 L-6,171 L-1,176 L4,179 L4,181 L-17,181 L5,182 L5,179 L7,179 L6,175 L8,171 L7,169 L10,169 L10,171 L12,171 L13,173 L18,171 L18,169 L21,170 L19,171 L25,173 L31,177 L30,176 L13,163 L3,155 L3,127 L17,119 L30,113 L35,114 L56,126 L58,128 L58,162 L49,169 L37,175 L38,177 L30,180 L29,184 L27,184 L26,182 L25,183 L19,183 L22,185 L20,190 L22,191 L21,196 L15,197 L20,199 L20,200 L14,201 L-9,201 L-16,200 L-12,199 L-13,198 L-25,200 L-40,195 L-47,192 L-51,188 L-56,183 L-54,182 L-49,184 L-49,182 L-52,182 L-55,172 L-59,171 L-55,170 L-56,167 L-57,169 L-62,168 L-63,167 L-62,172 L-61,175 L-64,176 L-64,178 L-68,176 L-78,167 L-81,164 L-80,159 L-78,159 L-76,155 L-79,154 L-78,152 L-69,152 L-68,150 L-72,151 L-74,149 L-71,146 L-72,143 L-70,143 L-70,139 L-73,138 L-71,131 L-73,130 L-72,128 L-75,129 L-76,127 L-79,127 L-78,122 L-76,122 L-76,120 L-78,120 L-78,118 L-76,117 L-77,115 L-75,113 L-79,112 L-87,105 L-88,102 L-88,78 L-84,61 L-77,47 L-75,44 L-71,45 L-53,57 L-53,93 L-55,95 L-52,97 L-54,102 L-51,102 L-50,106 L-46,107 L-45,104 L-40,107 L-35,106 L-36,102 L-33,102 L-32,106 L-28,108 L-27,105 L-20,103 L-19,105 L-19,103 L-25,99 L-29,95 L-34,92 L-35,88 L-37,91 L-38,73 L-39,77 L-42,76 L-41,72 L-45,72 L-45,75 L-49,76 L-51,75 L-50,83 L-51,94 L-52,94 L-52,63 L-50,67 L-49,66 L-48,60 L-45,62 L-42,61 L-41,58 L-43,57 L-43,55 L-40,55 L-41,51 L-32,51 L-31,47 L-35,47 L-36,50 L-38,50 L-38,43 L-37,41 L-39,40 L-37,38 L-42,41 L-47,39 L-62,29 L-62,25 L-51,16 L-38,8 L-25,3 L-18,2 L-15,20 L-15,24 L-11,25 L-11,28 L-8,27 L-10,27 L-11,24 L-13,23 L-14,10 L-10,8 L-10,14 L-7,17 L-7,21 L-9,21 L-9,23 L-5,21 L-4,24 L-2,22 L-1,23 L-1,13 L0,13 Z M10,36 L9,39 L12,40 Z " fill="#4E2A2D" transform="translate(225,444)"/>
<path d="M0,0 L8,0 L14,3 L20,10 L27,29 L32,42 L39,50 L49,55 L75,64 L82,72 L83,75 L83,84 L79,92 L74,96 L49,105 L38,111 L32,118 L27,130 L21,149 L17,155 L10,159 L-2,159 L-10,153 L-15,141 L-21,123 L-27,113 L-36,107 L-50,101 L-65,96 L-70,91 L-73,86 L-73,73 L-69,67 L-61,62 L-38,54 L-29,48 L-23,41 L-16,22 L-11,9 L-6,3 Z " fill="#4C282B" transform="translate(844,387)"/>
<path d="M0,0 L2,1 L0,5 L2,5 L2,12 L4,13 L6,9 L9,8 L9,13 L6,13 L5,15 L-1,13 L-2,21 L0,16 L2,16 L3,21 L7,22 L5,25 L7,26 L8,21 L4,20 L4,18 L9,16 L10,16 L11,9 L15,9 L19,9 L20,11 L25,11 L24,14 L28,12 L28,15 L23,15 L22,14 L21,16 L23,17 L20,19 L19,22 L13,20 L11,19 L10,25 L12,27 L10,31 L12,32 L9,32 L6,34 L5,30 L4,32 L3,33 L-2,33 L-5,34 L-5,40 L-7,40 L-6,45 L-3,43 L-3,45 L3,47 L4,49 L3,54 L4,51 L7,51 L8,56 L4,55 L4,57 L2,57 L1,59 L-3,61 L0,62 L1,63 L1,65 L3,65 L4,63 L9,65 L9,63 L11,63 L11,59 L12,55 L10,54 L11,51 L16,52 L15,45 L17,45 L19,50 L22,51 L21,53 L19,52 L18,56 L16,55 L19,58 L18,63 L20,65 L22,63 L24,67 L27,67 L27,69 L25,69 L25,71 L19,72 L19,69 L13,68 L10,68 L10,71 L13,70 L18,71 L19,73 L24,76 L29,77 L29,79 L37,80 L36,76 L34,76 L33,70 L36,69 L38,65 L42,64 L44,69 L42,69 L43,74 L41,74 L41,76 L43,76 L43,80 L39,84 L18,95 L2,101 L-19,108 L-23,112 L-23,121 L-16,129 L-10,138 L-7,145 L-7,156 L-10,166 L-14,170 L-17,166 L-17,164 L-15,164 L-16,156 L-15,151 L-15,142 L-13,142 L-13,138 L-15,138 L-15,141 L-17,141 L-16,137 L-15,135 L-18,136 L-20,145 L-20,148 L-24,148 L-27,150 L-24,151 L-25,154 L-26,152 L-28,152 L-28,156 L-26,155 L-24,163 L-26,163 L-26,165 L-24,165 L-24,167 L-27,167 L-27,165 L-32,166 L-35,169 L-35,167 L-38,164 L-37,161 L-35,161 L-34,159 L-33,158 L-37,159 L-41,161 L-43,164 L-46,164 L-48,168 L-51,171 L-49,174 L-53,176 L-52,183 L-56,184 L-56,172 L-58,171 L-56,171 L-55,166 L-60,167 L-63,167 L-62,171 L-63,175 L-66,178 L-65,183 L-70,183 L-70,176 L-77,177 L-84,179 L-85,177 L-82,177 L-82,174 L-79,174 L-81,170 L-80,169 L-79,158 L-82,157 L-82,155 L-78,154 L-78,152 L-74,154 L-72,154 L-72,150 L-70,147 L-67,146 L-68,144 L-65,143 L-61,145 L-62,139 L-58,137 L-52,137 L-55,134 L-55,132 L-59,134 L-62,128 L-73,126 L-73,124 L-78,125 L-78,122 L-74,122 L-74,119 L-76,119 L-76,117 L-80,117 L-81,119 L-84,119 L-84,114 L-82,114 L-81,105 L-83,104 L-82,107 L-87,106 L-88,102 L-86,99 L-85,101 L-82,98 L-82,101 L-81,99 L-79,99 L-79,95 L-81,96 L-81,90 L-80,86 L-77,87 L-77,90 L-73,91 L-74,94 L-75,92 L-77,93 L-73,96 L-74,98 L-70,99 L-70,97 L-71,92 L-67,91 L-66,89 L-68,87 L-65,87 L-66,81 L-64,82 L-61,80 L-60,74 L-65,77 L-67,80 L-69,79 L-70,84 L-73,82 L-72,80 L-75,81 L-77,76 L-78,74 L-80,73 L-80,69 L-78,69 L-80,63 L-77,62 L-76,67 L-73,67 L-72,65 L-72,68 L-74,71 L-72,71 L-72,69 L-68,70 L-67,74 L-69,75 L-70,78 L-67,76 L-65,72 L-61,71 L-63,71 L-63,64 L-61,60 L-60,65 L-56,65 L-57,62 L-59,61 L-59,57 L-64,58 L-65,63 L-68,63 L-67,58 L-70,56 L-68,48 L-68,45 L-67,43 L-65,39 L-64,41 L-61,39 L-66,37 L-66,39 L-68,39 L-67,42 L-72,43 L-74,50 L-81,51 L-80,54 L-81,56 L-77,55 L-78,58 L-80,58 L-81,60 L-83,57 L-87,58 L-89,53 L-90,51 L-86,46 L-87,47 L-88,44 L-86,44 L-86,41 L-83,40 L-81,42 L-84,43 L-80,45 L-77,45 L-75,40 L-74,36 L-76,29 L-74,23 L-65,23 L-64,22 L-50,21 L-65,20 L-65,18 L-49,18 L-48,19 L-38,20 L-38,22 L-48,22 L-48,24 L-35,23 L-36,27 L-42,28 L-42,30 L-40,30 L-40,32 L-36,30 L-36,28 L-30,28 L-29,25 L-26,25 L-25,20 L-22,20 L-22,22 L-15,19 L-15,16 L-16,18 L-20,17 L-21,11 L-12,6 L-10,6 L-12,12 L-11,16 L-4,13 L-3,8 L-1,8 L-3,6 L-2,1 Z M2,22 Z M-67,53 L-66,58 L-63,56 L-65,56 L-66,53 Z M17,64 Z M0,14 Z M-22,18 Z M-24,164 Z M-62,168 Z " fill="#34C3B1" transform="translate(577,727)"/>
<path d="M0,0 L3,0 L7,1 L11,7 L10,10 L6,9 L8,13 L10,14 L9,16 L6,16 L3,14 L3,9 L2,10 L1,14 L0,16 L3,15 L4,18 L4,28 L2,30 L2,28 L0,28 L0,30 L-2,30 L-2,32 L-6,33 L-4,33 L-5,41 L-7,47 L-18,60 L-32,74 L-49,87 L-68,98 L-87,107 L-98,111 L-101,111 L-95,121 L-91,133 L-91,148 L-95,161 L-101,171 L-110,181 L-123,189 L-136,194 L-152,197 L-173,197 L-186,195 L-200,190 L-212,183 L-222,173 L-228,163 L-231,156 L-232,151 L-232,131 L-227,118 L-223,111 L-228,110 L-249,101 L-266,92 L-281,82 L-282,80 L-277,82 L-268,88 L-264,88 L-264,90 L-259,90 L-259,92 L-252,92 L-252,87 L-247,86 L-246,83 L-243,83 L-243,81 L-253,78 L-253,81 L-264,81 L-264,79 L-266,77 L-262,77 L-262,71 L-263,73 L-268,74 L-269,72 L-267,72 L-267,70 L-265,70 L-269,66 L-272,65 L-272,63 L-267,65 L-253,74 L-238,82 L-224,88 L-201,96 L-195,101 L-195,109 L-198,114 L-206,123 L-210,133 L-211,138 L-211,145 L-208,155 L-202,163 L-194,169 L-184,173 L-176,175 L-153,175 L-141,173 L-129,168 L-121,162 L-115,153 L-113,145 L-113,134 L-119,122 L-128,112 L-129,110 L-129,101 L-124,96 L-97,87 L-79,79 L-63,70 L-51,61 L-38,50 L-27,38 L-15,21 L-10,15 L-5,5 L-2,2 L0,2 Z " fill="#4D292C" transform="translate(682,738)"/>
<path d="M0,0 L3,1 L7,11 L8,15 L11,21 L11,24 L10,25 L13,26 L15,30 L17,33 L33,73 L39,88 L39,93 L32,105 L25,121 L19,140 L16,156 L15,163 L-4,172 L-7,169 L-13,169 L-15,173 L-18,172 L-18,169 L-23,167 L-22,164 L-22,166 L-20,166 L-21,161 L-23,161 L-24,163 L-28,162 L-30,165 L-32,166 L-31,168 L-33,168 L-33,173 L-36,173 L-35,169 L-40,170 L-41,167 L-44,172 L-48,175 L-51,173 L-48,172 L-48,166 L-51,163 L-53,164 L-52,157 L-50,155 L-49,157 L-48,153 L-48,150 L-42,148 L-42,146 L-39,146 L-38,144 L-37,147 L-35,147 L-36,140 L-36,132 L-32,123 L-30,123 L-31,115 L-29,115 L-30,111 L-31,114 L-32,116 L-33,120 L-36,117 L-35,112 L-28,109 L-30,109 L-31,108 L-33,108 L-34,110 L-33,103 L-37,102 L-35,102 L-36,96 L-33,96 L-30,96 L-30,94 L-36,92 L-37,87 L-31,87 L-32,91 L-29,88 L-29,87 L-35,86 L-38,82 L-41,80 L-37,79 L-37,72 L-39,71 L-39,69 L-38,68 L-39,68 L-39,63 L-43,62 L-46,60 L-47,63 L-46,57 L-44,55 L-44,57 L-39,59 L-37,60 L-38,57 L-35,56 L-35,54 L-33,54 L-34,51 L-37,48 L-34,48 L-31,49 L-30,50 L-30,47 L-28,47 L-30,43 L-32,46 L-33,44 L-35,44 L-36,37 L-38,37 L-37,34 L-36,33 L-39,31 L-36,30 L-41,28 L-44,23 L-40,21 L-37,21 L-37,19 L-21,11 L-19,11 L-19,13 L-15,13 L-14,16 L-10,11 L-7,8 L-5,7 L-6,3 Z M-39,103 L-37,104 L-39,106 Z " fill="#F76B44" transform="translate(285,156)"/>
<path d="M0,0 L3,3 L5,1 L7,4 L7,9 L5,9 L4,16 L5,18 L3,18 L3,22 L7,18 L12,18 L13,23 L26,24 L26,26 L17,26 L17,28 L26,28 L33,31 L41,42 L44,50 L44,83 L47,83 L47,86 L46,87 L47,87 L47,93 L43,96 L41,96 L41,99 L43,99 L43,106 L40,105 L41,100 L37,99 L36,99 L32,101 L35,104 L32,104 L32,106 L36,107 L36,108 L31,109 L40,111 L45,115 L46,118 L48,119 L52,129 L60,136 L72,142 L81,144 L95,144 L110,139 L122,132 L130,123 L135,115 L138,112 L149,112 L154,117 L154,127 L148,138 L139,148 L128,157 L117,163 L109,166 L98,168 L76,168 L64,165 L50,158 L37,148 L32,143 L29,142 L27,140 L24,141 L24,143 L22,143 L20,140 L17,139 L19,133 L19,131 L23,132 L20,129 L21,118 L19,118 L19,128 L17,127 L17,123 L15,123 L14,118 L16,113 L14,112 L20,109 L22,109 L18,104 L22,103 L20,100 L21,98 L10,98 L7,95 L5,96 L1,97 L-1,93 L-2,95 L-3,94 L-5,101 L-7,101 L-7,99 L-9,99 L-9,101 L-11,101 L-12,103 L-13,102 L-15,107 L-17,107 L-18,106 L-22,108 L-22,110 L-25,110 L-26,106 L-28,105 L-27,99 L-30,98 L-28,96 L-25,96 L-24,89 L-27,88 L-23,87 L-21,86 L-15,87 L-13,85 L-13,82 L-10,81 L-7,83 L-6,81 L-4,80 L-6,76 L-4,76 L-3,69 L-1,71 L-1,69 L-1,49 L1,43 L-1,43 L-1,37 L3,36 L2,27 L-5,25 L-7,22 L-7,21 L-9,21 L-8,24 L-9,25 L-15,25 L-13,15 L-8,17 L-8,15 L-6,15 L-5,11 L-9,11 L-9,9 L-6,8 L-5,6 L-7,4 Z " fill="#37C3B2" transform="translate(433,573)"/>
<path d="M0,0 L7,6 L15,21 L18,34 L18,55 L14,71 L7,87 L-1,99 L-10,109 L-17,116 L-27,123 L-44,132 L-64,138 L-76,140 L-87,140 L-88,145 L-96,162 L-106,178 L-111,183 L-112,179 L-109,179 L-108,171 L-111,172 L-110,169 L-106,170 L-106,168 L-104,168 L-104,166 L-101,166 L-101,154 L-104,154 L-103,150 L-104,146 L-101,147 L-100,145 L-100,152 L-95,153 L-96,152 L-99,147 L-97,146 L-97,148 L-94,147 L-96,142 L-97,139 L-100,140 L-102,142 L-103,139 L-106,140 L-107,143 L-109,143 L-111,149 L-116,158 L-117,155 L-109,139 L-100,112 L-97,93 L-97,61 L-100,42 L-99,38 L-98,40 L-95,37 L-94,40 L-96,40 L-95,60 L-95,94 L-97,111 L-95,102 L-94,91 L-92,91 L-91,103 L-89,102 L-86,113 L-85,114 L-85,94 L-81,94 L-79,93 L-82,91 L-81,89 L-78,90 L-76,92 L-75,94 L-77,95 L-76,96 L-65,96 L-49,89 L-40,82 L-32,74 L-27,66 L-22,52 L-22,29 L-25,23 L-25,14 L-22,11 L-16,11 L-10,17 L-11,13 L-6,11 L-7,9 L-4,9 L-4,7 L4,7 L5,10 L5,7 L3,5 L-2,4 L-1,1 Z " fill="#4C292C" transform="translate(786,600)"/>
<path d="M0,0 L17,0 L29,2 L44,8 L58,16 L59,17 L60,33 L46,40 L34,45 L30,43 L15,33 L11,31 L12,35 L12,38 L16,39 L15,41 L10,42 L10,44 L12,45 L12,47 L14,49 L10,52 L21,60 L22,61 L22,96 L-3,109 L-9,108 L-34,92 L-35,88 L-37,91 L-38,73 L-39,77 L-42,76 L-41,72 L-45,72 L-45,75 L-49,76 L-51,75 L-50,83 L-51,94 L-52,94 L-52,63 L-50,67 L-49,66 L-48,60 L-45,62 L-42,61 L-41,58 L-43,57 L-43,55 L-40,55 L-41,51 L-32,51 L-31,47 L-35,47 L-36,50 L-38,50 L-38,43 L-37,41 L-39,40 L-37,38 L-42,41 L-47,39 L-62,29 L-62,25 L-51,16 L-38,8 L-25,3 L-18,2 L-15,20 L-15,24 L-11,25 L-11,28 L-8,27 L-10,27 L-11,24 L-13,23 L-14,10 L-10,8 L-10,14 L-7,17 L-7,21 L-9,21 L-9,23 L-5,21 L-4,24 L-2,22 L-1,23 L-1,13 L0,13 Z M10,36 L9,39 L12,40 Z " fill="#4F2B2E" transform="translate(225,444)"/>
<path d="M0,0 L2,1 L6,12 L6,14 L-16,25 L-38,37 L-48,42 L-46,43 L-46,45 L-43,45 L-43,40 L-37,39 L-34,39 L-35,37 L-30,38 L-30,41 L-27,40 L-25,41 L-24,39 L-19,40 L-20,45 L-17,46 L-18,49 L-26,51 L-26,53 L-31,57 L-54,69 L-74,80 L-79,81 L-84,82 L-86,79 L-79,95 L-79,97 L-81,97 L-82,101 L-85,101 L-85,106 L-88,106 L-89,110 L-87,110 L-87,115 L-89,114 L-91,109 L-91,105 L-89,105 L-91,98 L-93,98 L-92,103 L-95,99 L-96,95 L-97,91 L-97,89 L-98,91 L-100,92 L-98,92 L-84,127 L-68,166 L-56,197 L-44,226 L-43,231 L-49,231 L-55,226 L-64,205 L-81,163 L-84,154 L-86,154 L-93,137 L-98,125 L-98,123 L-101,122 L-101,117 L-105,121 L-107,121 L-107,124 L-110,123 L-112,115 L-109,115 L-109,113 L-103,112 L-108,100 L-109,104 L-107,104 L-108,110 L-110,110 L-110,108 L-113,109 L-114,105 L-117,106 L-117,104 L-121,105 L-123,101 L-122,98 L-120,98 L-119,96 L-118,97 L-117,95 L-120,94 L-119,85 L-115,83 L-115,81 L-117,80 L-116,73 L-106,74 L-104,72 L-106,73 L-113,73 L-117,70 L-117,64 L-112,59 L-86,45 L-61,32 L-42,22 L-13,7 Z " fill="#4F2A2D" transform="translate(255,130)"/>
<path d="M0,0 L5,1 L8,5 L8,7 L13,6 L17,7 L23,18 L25,21 L30,37 L32,51 L32,75 L28,77 L27,83 L28,83 L27,92 L25,95 L23,94 L20,89 L15,87 L16,85 L14,83 L14,87 L12,87 L11,90 L3,93 L-2,94 L-5,92 L-10,91 L-9,95 L-9,98 L-9,100 L-7,100 L-6,112 L-5,100 L5,92 L6,94 L-2,110 L-4,114 L-3,117 L-8,118 L-6,119 L-6,121 L-1,121 L-1,127 L-3,127 L-4,129 L-9,129 L-10,124 L-11,124 L-13,122 L-11,122 L-12,115 L-8,116 L-8,107 L-11,109 L-9,114 L-15,114 L-15,112 L-13,112 L-14,107 L-13,106 L-15,102 L-16,100 L-15,99 L-16,96 L-14,96 L-16,92 L-16,91 L-19,94 L-22,94 L-23,92 L-26,92 L-26,88 L-23,88 L-25,87 L-25,85 L-22,83 L-19,83 L-19,85 L-21,86 L-18,87 L-18,83 L-22,81 L-25,78 L-41,69 L-41,33 L-17,23 L-21,22 L-23,21 L-23,23 L-29,21 L-29,20 L-24,20 L-23,13 L-25,12 L-26,15 L-30,14 L-31,10 L-26,6 L-22,6 L-22,8 L-20,8 L-20,5 L-7,4 L-2,2 Z " fill="#4E292D" transform="translate(308,472)"/>
<path d="M0,0 L4,1 L-1,2 L-1,4 L2,5 L2,6 L-3,6 L-4,4 L-9,6 L-14,6 L-14,9 L-11,10 L-14,14 L-10,15 L-11,17 L-8,17 L-7,20 L-11,20 L-14,22 L-15,25 L-20,24 L-20,22 L-17,22 L-18,18 L-20,17 L-18,13 L-20,12 L-20,10 L-23,11 L-22,14 L-28,13 L-32,15 L-30,16 L-29,21 L-30,24 L-28,24 L-29,26 L-30,30 L-28,31 L-31,34 L-35,34 L-35,36 L-29,35 L-29,38 L-24,34 L-26,43 L-29,46 L-29,49 L-29,51 L-26,49 L-21,50 L-21,52 L-27,54 L-28,55 L-27,59 L-26,57 L-24,58 L-25,60 L-23,60 L-22,57 L-22,64 L-20,64 L-20,68 L-22,67 L-25,65 L-25,69 L-23,69 L-23,71 L-16,70 L-14,68 L-2,69 L1,71 L11,75 L21,84 L25,92 L24,99 L19,103 L10,103 L2,97 L-3,94 L-9,95 L-17,106 L-19,107 L-31,107 L-35,105 L-35,107 L-38,107 L-38,105 L-36,105 L-35,92 L-34,90 L-36,90 L-36,93 L-38,93 L-38,88 L-36,88 L-37,84 L-40,87 L-42,91 L-43,89 L-46,89 L-47,87 L-47,86 L-48,83 L-45,82 L-44,76 L-40,73 L-39,75 L-35,73 L-35,71 L-38,70 L-36,68 L-34,69 L-34,75 L-31,76 L-32,84 L-36,82 L-36,84 L-34,84 L-34,87 L-32,87 L-31,79 L-30,78 L-30,70 L-32,70 L-33,65 L-32,64 L-34,63 L-32,59 L-30,60 L-29,57 L-33,57 L-36,57 L-38,53 L-41,52 L-41,57 L-46,59 L-49,62 L-55,63 L-57,68 L-53,70 L-54,73 L-55,74 L-53,78 L-56,79 L-56,81 L-59,84 L-54,87 L-55,89 L-60,88 L-59,91 L-62,90 L-63,85 L-60,81 L-60,78 L-61,80 L-64,80 L-64,83 L-66,83 L-67,87 L-69,87 L-68,92 L-66,93 L-69,95 L-63,94 L-63,96 L-66,98 L-67,101 L-69,100 L-68,104 L-73,105 L-73,107 L-75,107 L-74,102 L-77,101 L-77,96 L-73,94 L-78,93 L-81,93 L-83,97 L-83,94 L-86,97 L-87,101 L-87,111 L-85,111 L-86,113 L-89,117 L-91,120 L-94,124 L-95,105 L-96,125 L-97,127 L-94,128 L-96,130 L-97,134 L-101,134 L-102,136 L-103,136 L-105,145 L-108,147 L-110,146 L-110,143 L-115,143 L-119,145 L-113,138 L-101,129 L-98,123 L-97,103 L-93,83 L-85,63 L-76,48 L-68,38 L-60,30 L-46,20 L-34,13 L-15,5 Z " fill="#36C3B2" transform="translate(518,425)"/>
<path d="M0,0 L4,1 L9,4 L10,6 L12,6 L12,8 L16,10 L13,13 L15,14 L12,15 L15,18 L16,17 L22,17 L23,18 L25,18 L26,22 L24,22 L25,28 L23,29 L22,32 L20,31 L16,29 L12,32 L8,33 L6,33 L3,34 L2,37 L-2,36 L-3,37 L-1,39 L3,38 L4,40 L2,40 L3,43 L6,40 L9,41 L6,42 L5,48 L8,48 L8,50 L10,50 L10,53 L8,53 L10,58 L11,52 L13,52 L13,49 L15,49 L13,61 L11,66 L10,66 L10,61 L8,61 L9,64 L8,65 L9,76 L10,82 L9,84 L11,84 L12,82 L15,83 L16,80 L17,81 L15,73 L15,58 L18,49 L24,41 L32,36 L42,36 L49,40 L56,48 L59,55 L60,60 L60,73 L56,84 L49,92 L42,95 L32,95 L24,90 L20,87 L22,89 L21,92 L21,90 L17,90 L16,87 L14,87 L14,90 L17,91 L16,95 L15,93 L13,93 L13,96 L9,94 L9,92 L11,92 L9,87 L7,88 L8,96 L6,94 L6,91 L4,91 L3,97 L1,98 L2,93 L0,93 L-1,95 L-1,91 L-7,93 L-7,97 L-5,95 L-4,92 L-2,92 L-2,98 L0,99 L0,101 L4,103 L5,106 L2,109 L-4,110 L-8,109 L-12,110 L-12,108 L-14,108 L-15,115 L-19,115 L-19,113 L-22,115 L-22,119 L-26,121 L-27,117 L-26,113 L-26,107 L-23,105 L-18,100 L-23,101 L-28,99 L-28,97 L-26,97 L-27,94 L-24,95 L-21,97 L-21,95 L-19,95 L-18,92 L-16,99 L-13,99 L-12,96 L-9,96 L-11,94 L-11,91 L-9,89 L-6,89 L-4,78 L-8,79 L-6,81 L-7,84 L-8,83 L-9,85 L-14,84 L-15,86 L-15,81 L-12,82 L-11,83 L-10,80 L-12,80 L-11,78 L-6,77 L-5,74 L-3,70 L-5,63 L-9,63 L-9,61 L-4,58 L0,60 L3,60 L3,57 L6,50 L4,49 L3,51 L-2,53 L-1,56 L-11,56 L-10,59 L-13,58 L-13,56 L-15,55 L-10,53 L-11,49 L-9,49 L-9,47 L-12,46 L-14,48 L-12,50 L-12,53 L-17,52 L-20,55 L-24,53 L-25,58 L-29,57 L-28,54 L-27,53 L-32,48 L-35,48 L-35,46 L-37,45 L-34,43 L-35,39 L-35,42 L-39,42 L-38,34 L-36,33 L-35,33 L-35,31 L-32,29 L-31,27 L-35,26 L-36,23 L-32,24 L-32,22 L-29,22 L-30,19 L-26,19 L-21,25 L-25,26 L-26,31 L-28,37 L-32,36 L-31,37 L-32,39 L-31,41 L-29,38 L-28,41 L-29,43 L-27,43 L-27,41 L-21,40 L-19,41 L-18,43 L-18,39 L-22,36 L-22,33 L-20,33 L-19,32 L-16,32 L-14,31 L-14,29 L-12,27 L-11,23 L-11,19 L-14,20 L-12,21 L-14,26 L-17,25 L-20,20 L-20,18 L-23,17 L-21,13 L-12,15 L-8,14 L-8,18 L-3,19 L-4,16 L-3,9 L-7,10 L-5,6 L1,6 L1,4 L-1,3 Z M11,16 Z M-12,106 L-11,108 Z M-2,3 Z M-4,4 L-2,5 Z M-11,63 L-9,64 L-7,68 L-9,75 L-13,73 L-15,71 L-18,71 L-16,66 L-13,66 L-11,65 Z " fill="#34C3B1" transform="translate(551,566)"/>
<path d="M0,0 L4,0 L3,10 L-3,26 L-12,47 L-24,71 L-35,89 L-47,106 L-59,120 L-61,120 L-67,112 L-75,105 L-89,97 L-95,94 L-93,88 L-82,72 L-73,62 L-66,54 L-47,35 L-39,28 L-23,15 L-10,6 Z " fill="#9876A1" transform="translate(886,145)"/>
<path d="M0,0 L2,1 L1,5 L0,20 L-2,20 L-3,25 L-12,31 L-20,38 L-28,49 L-33,59 L-35,68 L-35,83 L-32,93 L-26,102 L-18,108 L-12,110 L-6,109 L-1,107 L0,101 L2,101 L4,103 L1,97 L-2,100 L-4,95 L-2,95 L-1,90 L4,89 L6,90 L7,86 L10,87 L5,83 L3,83 L3,87 L-1,85 L-1,83 L1,83 L0,79 L1,72 L2,69 L3,61 L8,62 L11,62 L6,68 L5,70 L5,77 L9,83 L15,91 L18,99 L18,111 L15,119 L9,126 L1,130 L-3,131 L-19,131 L-30,127 L-41,118 L-50,106 L-55,94 L-57,85 L-57,65 L-54,53 L-46,37 L-38,26 L-28,16 L-14,6 L-10,4 L-4,2 Z " fill="#4D292C" transform="translate(330,685)"/>
<path d="M0,0 L10,0 L16,5 L22,15 L30,23 L44,30 L53,32 L67,32 L82,27 L94,20 L102,11 L107,3 L110,0 L121,0 L126,5 L126,15 L120,26 L111,36 L100,45 L89,51 L81,54 L70,56 L48,56 L36,53 L22,46 L9,36 L2,29 L-4,19 L-5,17 L-5,5 Z " fill="#4F2A2D" transform="translate(461,685)"/>
<path d="M0,0 L2,4 L8,22 L14,33 L22,41 L36,49 L54,55 L53,57 L41,61 L27,68 L17,76 L10,86 L4,102 L1,113 L0,113 L-5,96 L-13,80 L-19,73 L-33,64 L-53,56 L-50,54 L-38,50 L-26,44 L-16,36 L-9,25 L-4,13 Z " fill="#FAB33E" transform="translate(848,411)"/>
<path d="M0,0 L10,0 L20,5 L26,13 L28,19 L28,34 L24,44 L19,52 L10,62 L-1,69 L-16,74 L-21,75 L-37,75 L-32,64 L-29,55 L-23,24 L-17,12 L-12,6 L-4,1 Z " fill="#9976A1" transform="translate(756,289)"/>
<path d="M0,0 L5,2 L28,18 L30,20 L30,55 L5,68 L-1,67 L-26,51 L-26,17 L-16,10 Z " fill="#FDF0DA" transform="translate(217,485)"/>
<path d="M0,0 L5,1 L26,13 L28,15 L28,49 L19,56 L7,62 L0,63 L-17,50 L-27,42 L-27,14 L-13,6 Z " fill="#FDEFDA" transform="translate(255,557)"/>
<path d="M0,0 L2,0 L4,5 L1,5 L3,6 L4,10 L-1,11 L1,12 L-1,16 L-7,18 L-7,16 L-10,17 L-7,19 L-8,24 L-10,24 L-10,22 L-13,22 L-14,25 L-17,23 L-16,26 L-14,27 L-16,31 L-18,32 L-20,31 L-20,29 L-25,30 L-26,34 L-28,32 L-30,32 L-33,35 L-33,32 L-33,28 L-35,30 L-36,24 L-34,21 L-35,20 L-36,23 L-49,31 L-42,30 L-41,37 L-43,43 L-47,42 L-48,40 L-54,43 L-55,45 L-59,45 L-63,38 L-62,43 L-65,47 L-71,39 L-81,34 L-91,34 L-98,35 L-103,35 L-103,33 L-107,34 L-115,31 L-117,24 L-107,17 L-101,15 L-92,16 L-88,15 L-84,16 L-82,15 L-80,17 L-83,20 L-80,18 L-77,13 L-76,15 L-71,14 L-70,11 L-68,12 L-66,8 L-66,19 L-67,17 L-70,22 L-64,23 L-63,21 L-59,22 L-65,18 L-65,9 L-63,1 L-58,2 L-47,8 L-38,16 L-39,13 L-37,11 L-29,12 L-26,9 L-27,8 L-30,7 L-29,3 L-25,5 L-23,8 L-23,11 L-18,13 L-12,10 L-13,7 L-8,5 L-9,3 L-5,2 Z " fill="#4E2A2D" transform="translate(847,256)"/>
<path d="M0,0 L5,1 L12,8 L17,18 L18,23 L18,41 L14,56 L7,70 L-1,80 L-9,88 L-19,95 L-34,102 L-53,107 L-59,107 L-56,87 L-41,83 L-25,75 L-15,66 L-9,59 L-3,47 L-1,40 L-1,17 L-3,10 L-3,3 Z " fill="#37C4B3" transform="translate(765,612)"/>
<path d="M0,0 L5,0 L20,15 L25,20 L28,24 L28,41 L14,52 L5,58 L0,57 L-21,46 L-22,45 L-22,9 Z " fill="#3A9271" transform="translate(289,496)"/>
<path d="M0,0 L10,0 L17,4 L24,12 L27,19 L28,24 L28,37 L24,48 L17,56 L10,59 L0,59 L-8,54 L-13,48 L-16,42 L-17,37 L-17,22 L-14,13 L-8,5 Z " fill="#4E2B2E" transform="translate(583,602)"/>
<path d="M0,0 L13,0 L22,6 L28,16 L29,20 L29,38 L25,47 L18,55 L12,58 L2,58 L-7,53 L-13,44 L-15,35 L-15,20 L-11,10 L-5,3 Z " fill="#502B2E" transform="translate(448,603)"/>
<path d="M0,0 L5,2 L26,16 L27,17 L27,44 L9,57 L4,61 L-1,59 L-7,55 L-16,48 L-22,20 L-21,16 L-4,3 Z " fill="#3A9271" transform="translate(182,553)"/>
<path d="M0,0 L2,1 L6,12 L6,14 L-16,25 L-38,37 L-71,54 L-93,66 L-106,73 L-113,73 L-117,70 L-117,64 L-112,59 L-86,45 L-61,32 L-42,22 L-13,7 Z " fill="#F7724A" transform="translate(255,130)"/>
<path d="M0,0 L17,0 L29,2 L44,8 L58,16 L59,17 L60,33 L46,40 L34,45 L30,43 L15,33 L4,25 L2,20 Z " fill="#FCEFDA" transform="translate(225,444)"/>
<path d="M0,0 L3,0 L6,19 L-5,27 L-12,35 L-16,44 L-17,48 L-17,59 L-13,69 L-5,79 L-4,86 L-9,90 L-17,89 L-26,83 L-32,76 L-36,67 L-37,62 L-37,47 L-34,36 L-28,25 L-19,14 L-6,4 Z " fill="#37C4B3" transform="translate(331,706)"/>
<path d="M0,0 L4,1 L22,13 L22,49 L4,63 L-4,68 L-12,61 L-13,58 L-13,34 L-9,17 L-2,3 Z " fill="#FCEED9" transform="translate(150,488)"/>
<path d="M0,0 L2,0 L16,35 L32,74 L44,105 L56,134 L57,139 L51,139 L45,134 L36,113 L19,71 L6,39 L-8,4 L-8,2 Z " fill="#F1683F" transform="translate(155,222)"/>
<path d="M0,0 L16,0 L26,4 L36,13 L40,21 L39,28 L34,32 L25,32 L17,26 L12,23 L6,24 L-2,35 L-4,36 L-14,36 L-18,32 L-19,30 L-19,23 L-15,13 L-8,5 Z " fill="#4E292C" transform="translate(503,496)"/>
<path d="M0,0 L1,0 L3,14 L4,18 L4,26 L0,28 L-1,34 L0,34 L-1,43 L-3,46 L-5,45 L-8,40 L-13,38 L-12,36 L-14,34 L-14,38 L-16,38 L-17,41 L-25,44 L-30,45 L-33,43 L-38,42 L-37,46 L-37,49 L-37,51 L-35,51 L-34,63 L-33,51 L-23,43 L-22,45 L-30,61 L-32,65 L-31,68 L-36,69 L-34,70 L-34,72 L-29,72 L-29,78 L-31,78 L-32,80 L-37,80 L-38,75 L-39,75 L-41,73 L-39,73 L-40,66 L-36,67 L-36,58 L-39,60 L-37,65 L-43,65 L-43,63 L-41,63 L-42,58 L-41,57 L-43,53 L-44,51 L-43,50 L-44,47 L-42,47 L-44,43 L-44,42 L-47,45 L-50,45 L-51,43 L-54,43 L-54,39 L-51,39 L-53,38 L-53,36 L-50,34 L-47,34 L-47,36 L-49,37 L-46,38 L-46,34 L-50,32 L-49,30 L-45,32 L-40,33 L-40,36 L-35,35 L-34,32 L-30,31 L-26,28 L-24,26 L-24,22 L-21,22 L-21,20 L-18,19 L-14,19 L-10,15 L-8,17 L-7,14 L-7,11 L-5,11 L-6,7 L-4,5 L-2,6 Z " fill="#4F2B2E" transform="translate(336,521)"/>
<path d="M0,0 L3,0 L3,2 L5,2 L6,4 L11,2 L11,0 L14,1 L12,2 L18,4 L24,8 L27,7 L29,6 L31,8 L23,11 L22,15 L20,15 L19,13 L18,14 L12,14 L15,16 L13,21 L15,22 L14,27 L8,28 L13,30 L13,31 L7,32 L-16,32 L-23,31 L-19,30 L-20,29 L-32,31 L-32,22 L-30,22 L-29,18 L-31,11 L-30,9 L-26,8 L-17,2 L-13,3 L-3,10 L-3,12 L-24,12 L-2,13 L-2,10 L0,10 L-1,6 L1,2 Z " fill="#4F2A2E" transform="translate(232,613)"/>
<path d="M0,0 L2,0 L4,5 L1,5 L3,6 L4,10 L-1,11 L1,12 L-1,16 L-7,18 L-7,16 L-10,17 L-7,19 L-8,24 L-10,24 L-10,22 L-13,22 L-14,25 L-17,23 L-16,26 L-14,27 L-16,31 L-18,32 L-20,31 L-20,29 L-25,30 L-26,34 L-28,32 L-30,32 L-33,35 L-33,32 L-33,28 L-35,30 L-36,24 L-34,21 L-35,20 L-36,23 L-49,31 L-56,25 L-63,19 L-65,18 L-65,9 L-63,1 L-58,2 L-47,8 L-38,16 L-39,13 L-37,11 L-29,12 L-26,9 L-27,8 L-30,7 L-29,3 L-25,5 L-23,8 L-23,11 L-18,13 L-12,10 L-13,7 L-8,5 L-9,3 L-5,2 Z " fill="#502B2E" transform="translate(847,256)"/>
<path d="M0,0 L3,0 L5,12 L5,22 L-13,34 L-21,39 L-26,37 L-41,27 L-41,23 L-30,14 L-17,6 L-4,1 Z " fill="#3A9271" transform="translate(204,446)"/>
<path d="M0,0 L5,2 L10,3 L10,6 L15,5 L16,2 L20,1 L22,0 L22,3 L27,4 L27,6 L25,6 L24,9 L23,13 L22,15 L12,12 L13,16 L13,19 L13,21 L15,21 L16,33 L17,21 L27,13 L28,15 L20,31 L18,35 L19,38 L14,39 L16,40 L16,42 L21,42 L21,48 L19,48 L18,50 L13,50 L12,45 L11,45 L9,43 L11,43 L10,36 L14,37 L14,28 L11,30 L13,35 L7,35 L7,33 L9,33 L8,28 L9,27 L7,23 L6,21 L7,20 L6,17 L8,17 L6,13 L6,12 L3,15 L0,15 L-1,13 L-4,13 L-4,9 L-1,9 L-3,8 L-3,6 L0,4 L3,4 L3,6 L1,7 L4,8 L4,4 L0,2 Z " fill="#4E2B2E" transform="translate(286,551)"/>
<path d="M0,0 L4,1 L14,8 L14,10 L-7,10 L2,11 L2,18 L4,18 L3,21 L1,23 L1,25 L5,26 L3,26 L3,28 L17,29 L17,26 L19,26 L20,24 L25,20 L30,19 L32,20 L31,25 L25,26 L30,28 L30,29 L24,30 L1,30 L-6,29 L-2,28 L-3,27 L-15,29 L-15,20 L-13,20 L-12,16 L-14,9 L-13,7 L-9,6 Z " fill="#502C2F" transform="translate(215,615)"/>
<path d="M0,0 L5,1 L16,7 L26,16 L28,21 L14,30 L7,24 L0,18 L-2,17 L-2,8 Z " fill="#FAF0DD" transform="translate(784,257)"/>
<path d="M0,0 L2,1 L2,2 L8,3 L9,0 L11,0 L11,4 L13,4 L14,2 L15,6 L14,8 L17,9 L16,14 L-3,24 L-4,32 L-5,52 L-6,52 L-7,22 L-5,22 L-5,15 L-7,14 L-2,14 L-3,19 L-1,18 L-1,16 L5,17 L13,13 L9,12 L6,9 L3,7 L7,7 L6,5 L0,5 L-1,3 L-7,6 L-9,5 Z " fill="#4A2629" transform="translate(232,547)"/>
<path d="M0,0 L3,1 L7,5 L9,6 L10,3 L10,5 L16,5 L16,11 L24,16 L25,13 L28,14 L28,19 L32,17 L37,18 L36,23 L33,23 L31,25 L30,22 L29,27 L28,30 L26,28 L25,55 L21,57 L23,54 L24,18 L19,16 L5,6 L1,6 Z " fill="#401F21" transform="translate(148,483)"/>
<path d="M0,0 L1,2 L-7,18 L-9,22 L-8,25 L-13,26 L-11,27 L-11,29 L-6,29 L-6,35 L-8,35 L-9,37 L-14,37 L-15,32 L-16,32 L-18,30 L-16,30 L-17,23 L-13,24 L-13,9 L-12,9 L-11,20 L-10,8 Z " fill="#502B2F" transform="translate(313,564)"/>
<path d="M0,0 L5,1 L8,4 L8,9 L10,9 L10,12 L5,14 L6,22 L4,22 L4,28 L3,28 L3,21 L1,21 L1,33 L0,33 L-1,17 L-3,10 L-3,3 Z " fill="#4AC29D" transform="translate(765,612)"/>
<path d="M0,0 L2,3 L7,4 L8,5 L10,3 L12,3 L10,2 L11,0 L26,11 L31,12 L27,14 L25,14 L20,9 L15,9 L16,6 L14,5 L14,7 L8,10 L8,7 L6,7 L5,6 L3,12 L3,15 L1,15 L1,18 L-1,19 L-21,18 L-24,16 L0,17 L0,15 L-5,13 L-12,7 L-9,7 L1,14 L-3,10 L-2,5 L0,5 Z " fill="#411F20" transform="translate(229,608)"/>
<path d="M0,0 L1,0 L2,12 L7,12 L9,8 L12,8 L12,10 L10,11 L8,19 L6,22 L4,22 L5,27 L10,26 L11,32 L7,29 L9,33 L14,34 L14,39 L16,43 L10,38 L4,28 L1,21 L0,16 Z " fill="#411F22" transform="translate(450,873)"/>
<path d="M0,0 L7,6 L11,8 L27,9 L25,18 L17,37 L14,41 L13,37 L13,26 L14,26 L15,33 L17,34 L19,27 L17,27 L17,31 L15,31 L15,25 L17,25 L17,22 L19,22 L20,25 L23,17 L21,17 L21,15 L23,15 L25,11 L12,11 L9,12 L8,9 L4,8 L4,6 L1,6 Z " fill="#42CBBA" transform="translate(687,375)"/>
<path d="M0,0 L4,1 L14,8 L14,10 L-4,10 L-10,8 L-6,4 Z " fill="#F8E9D5" transform="translate(215,615)"/>
<path d="M0,0 L1,0 L1,42 L2,55 L1,56 L0,60 L-1,59 L-2,52 L-4,50 L-4,8 L-3,8 L-2,42 L-1,5 Z " fill="#3C3736" transform="translate(353,652)"/>
<path d="M0,0 L39,1 L65,3 L64,6 L44,4 L-3,3 Z " fill="#383536" transform="translate(496,170)"/>
<path d="M0,0 L7,1 L8,3 L7,5 L9,6 L11,17 L9,17 L9,14 L7,14 L7,48 L6,48 L5,14 L1,9 Z " fill="#5D3C3C" transform="translate(241,491)"/>
<path d="M0,0 L44,0 L52,1 L52,2 L33,2 L33,3 L-18,3 L-18,2 Z " fill="#4DC5B7" transform="translate(496,173)"/>
<path d="M0,0 L11,2 L15,3 L37,3 L46,2 L46,5 L39,6 L36,7 L17,7 L17,8 L10,8 L8,6 L12,5 L4,6 L5,2 L0,1 Z " fill="#4ABBAE" transform="translate(494,737)"/>
<path d="M0,0 L5,1 L8,1 L3,7 L2,9 L2,16 L6,22 L12,30 L11,33 L5,24 L2,22 L0,22 L0,26 L-4,24 L-4,22 L-2,22 L-3,18 L-2,11 L-1,8 Z " fill="#411F21" transform="translate(333,746)"/>
<path d="M0,0 L5,0 L4,6 L6,5 L7,1 L13,2 L9,6 L-5,13 L-8,12 L-5,10 L-4,1 Z " fill="#452325" transform="translate(274,626)"/>
<path d="M0,0 L39,0 L54,2 L54,3 L39,4 L38,6 L38,4 L25,3 L24,6 L23,1 L0,1 Z " fill="#37191B" transform="translate(498,151)"/>
<path d="M0,0 L1,0 L2,32 L3,30 L8,29 L9,34 L13,33 L14,39 L11,39 L10,36 L6,35 L6,33 L4,35 L2,39 L0,39 L0,36 L-10,41 L-12,40 L-1,34 Z " fill="#3D1A1C" transform="translate(248,505)"/>
<path d="M0,0 L7,6 L15,14 L25,27 L24,29 L20,24 L16,26 L14,25 L17,24 L14,22 L15,18 L8,10 L4,10 L1,7 L-4,6 L-4,4 L0,4 Z " fill="#412022" transform="translate(683,214)"/>
<path d="M0,0 L3,3 L14,31 L16,36 L16,40 L13,39 L12,32 L8,22 L8,20 L6,20 L5,25 L3,24 L3,21 L0,24 L-2,20 L-1,17 L0,19 L3,18 L4,14 L4,17 L6,17 L0,4 Z " fill="#EA6E4A" transform="translate(188,303)"/>
<path d="M0,0 L3,1 L-16,11 L-17,19 L-18,39 L-19,39 L-20,9 L-18,9 L-18,2 L-20,1 L-15,1 L-16,6 L-14,5 L-14,3 L-8,4 Z " fill="#3D1B1C" transform="translate(245,560)"/>
<path d="M0,0 L1,0 L1,11 L-4,27 L-12,46 L-14,48 L-13,43 L-11,39 L-13,39 L-15,35 L-10,36 L-8,30 L-8,27 L-11,27 L-11,25 L-6,26 L-2,13 L-2,3 L0,3 Z " fill="#3A1B1C" transform="translate(910,143)"/>
<path d="M0,0 L7,1 L7,3 L13,2 L13,3 L37,4 L37,5 L12,6 L-2,9 L-6,8 L-1,7 L-1,5 L2,4 L3,2 L1,2 L0,4 Z " fill="#39191B" transform="translate(490,278)"/>
<path d="M0,0 L5,0 L2,1 L0,12 L-4,24 L-6,25 L-4,15 L-6,18 L-8,14 L-11,13 L-9,9 L-9,5 L-2,4 L-1,6 L-3,9 L-7,9 L-7,11 L-2,11 Z " fill="#432022" transform="translate(733,383)"/>
<path d="M0,0 L1,2 L-7,18 L-9,21 L-11,20 L-10,8 Z " fill="#F3E3CF" transform="translate(313,564)"/>
<path d="M0,0 L4,0 L5,3 L10,2 L7,5 L-12,15 L-19,18 L-22,17 L-18,14 L-18,10 L-13,10 L-11,12 L-3,8 L-4,4 L-1,5 L-1,7 L3,5 L0,3 Z " fill="#402122" transform="translate(616,826)"/>
<path d="M0,0 L1,3 L-5,11 L-11,15 L-18,17 L-30,17 L-30,16 L-15,14 L-14,13 L-15,7 L-8,8 L-8,3 L-7,3 L-7,9 L-5,8 L-4,5 L-1,2 Z " fill="#3D1D1E" transform="translate(345,799)"/>
<path d="M0,0 L2,1 L4,11 L4,25 L3,23 L-1,24 L-2,18 L1,17 L1,7 L0,16 L-1,13 L-3,12 L-2,3 L0,3 Z " fill="#412123" transform="translate(800,623)"/>
<path d="M0,0 L1,3 L-6,22 L-13,33 L-15,34 L-13,29 L-13,27 L-16,21 L-11,20 L-10,23 L-9,17 L-7,18 Z " fill="#3D1C1D" transform="translate(439,328)"/>
<path d="M0,0 L6,1 L4,38 L0,43 L-4,42 L2,37 L2,3 Z " fill="#391619" transform="translate(280,569)"/>
</svg>
